<svg xmlns="http://www.w3.org/2000/svg" xmlns:xlink="http://www.w3.org/1999/xlink" width="100" zoomAndPan="magnify" viewBox="0 0 75 37.5" height="50" preserveAspectRatio="xMidYMid meet" version="1.0"><defs><g/><clipPath id="529e542155"><path d="M 0.492188 0 L 74.503906 0 L 74.503906 37.007812 L 0.492188 37.007812 Z M 0.492188 0 " clip-rule="nonzero"/></clipPath><clipPath id="ec86f1d687"><path d="M 4.015625 16.851562 L 70.984375 16.851562 L 70.984375 23.242188 L 4.015625 23.242188 Z M 4.015625 16.851562 " clip-rule="nonzero"/></clipPath></defs><g clip-path="url(#529e542155)"><path fill="#ffffff" d="M 0.492188 0 L 74.507812 0 L 74.507812 44.40625 L 0.492188 44.40625 Z M 0.492188 0 " fill-opacity="1" fill-rule="nonzero"/><path fill="#ffffff" d="M 0.492188 0 L 74.507812 0 L 74.507812 37.007812 L 0.492188 37.007812 Z M 0.492188 0 " fill-opacity="1" fill-rule="nonzero"/><path fill="#ffffff" d="M 0.492188 0 L 74.507812 0 L 74.507812 37.007812 L 0.492188 37.007812 Z M 0.492188 0 " fill-opacity="1" fill-rule="nonzero"/></g><g fill="#3b3937" fill-opacity="1"><g transform="translate(13.225614, 30.125609)"><g><path d="M 1.046875 0 L 1.046875 -0.296875 L 1.671875 -0.296875 C 2.378906 -0.296875 2.925781 -0.457031 3.3125 -0.78125 C 3.695312 -1.101562 3.890625 -1.640625 3.890625 -2.390625 L 3.890625 -19.09375 C 3.890625 -19.8125 3.695312 -20.320312 3.3125 -20.625 C 2.925781 -20.9375 2.378906 -21.09375 1.671875 -21.09375 L 1.046875 -21.09375 L 1.046875 -21.390625 L 10.21875 -21.390625 L 10.21875 -21.09375 L 9.59375 -21.09375 C 8.894531 -21.09375 8.351562 -20.929688 7.96875 -20.609375 C 7.59375 -20.296875 7.40625 -19.769531 7.40625 -19.03125 L 7.40625 -0.296875 L 12.609375 -0.296875 C 13.710938 -0.296875 14.59375 -0.457031 15.25 -0.78125 C 15.914062 -1.101562 16.410156 -1.628906 16.734375 -2.359375 C 17.066406 -3.085938 17.273438 -4.085938 17.359375 -5.359375 L 17.4375 -6.5 L 17.734375 -6.5 L 17.53125 0 Z M 1.046875 0 "/></g></g></g><g fill="#3b3937" fill-opacity="1"><g transform="translate(32.165166, 30.125609)"><g><path d="M 1.046875 0 L 1.046875 -0.296875 L 1.671875 -0.296875 C 2.378906 -0.296875 2.925781 -0.457031 3.3125 -0.78125 C 3.695312 -1.101562 3.890625 -1.640625 3.890625 -2.390625 L 3.890625 -19.09375 C 3.890625 -19.8125 3.695312 -20.320312 3.3125 -20.625 C 2.925781 -20.9375 2.378906 -21.09375 1.671875 -21.09375 L 1.046875 -21.09375 L 1.046875 -21.390625 L 10.21875 -21.390625 L 10.21875 -21.09375 L 9.59375 -21.09375 C 8.875 -21.09375 8.328125 -20.929688 7.953125 -20.609375 C 7.585938 -20.296875 7.40625 -19.757812 7.40625 -19 L 7.40625 -2.390625 C 7.40625 -1.640625 7.585938 -1.101562 7.953125 -0.78125 C 8.328125 -0.457031 8.875 -0.296875 9.59375 -0.296875 L 10.21875 -0.296875 L 10.21875 0 Z M 1.046875 0 "/></g></g></g><g fill="#3b3937" fill-opacity="1"><g transform="translate(43.433, 30.125609)"><g><path d="M 1.140625 0 L 1.140625 -0.296875 L 12.671875 -21.09375 L 6.625 -21.09375 C 4.96875 -21.09375 3.800781 -20.785156 3.125 -20.171875 C 2.457031 -19.566406 2.09375 -18.476562 2.03125 -16.90625 L 1.984375 -15.890625 L 1.671875 -15.890625 L 1.859375 -21.390625 L 16.546875 -21.390625 L 16.546875 -21.09375 L 5 -0.296875 L 12.140625 -0.296875 C 13.710938 -0.296875 14.832031 -0.597656 15.5 -1.203125 C 16.175781 -1.816406 16.582031 -2.914062 16.71875 -4.5 L 16.8125 -5.515625 L 17.109375 -5.515625 L 16.90625 0 Z M 1.140625 0 "/></g></g></g><g clip-path="url(#ec86f1d687)"><path fill="#ffffff" d="M 4.015625 16.851562 L 70.878906 16.851562 L 70.878906 23.070312 L 4.015625 23.070312 Z M 4.015625 16.851562 " fill-opacity="1" fill-rule="nonzero"/></g><g fill="#3b3937" fill-opacity="1"><g transform="translate(13.896981, 20.815438)"><g><path d="M 0.390625 -0.191406 L 0.390625 -1.839844 L 0.203125 -1.839844 L 0.203125 0 L 1.050781 0 L 1.050781 -0.191406 Z M 0.390625 -0.191406 "/></g></g></g><g fill="#3b3937" fill-opacity="1"><g transform="translate(17.081212, 20.815438)"><g><path d="M 1.296875 0 L 1.296875 -0.175781 L 0.390625 -0.175781 L 0.390625 -0.832031 L 1.269531 -0.832031 L 1.269531 -1.007812 L 0.390625 -1.007812 L 0.390625 -1.664062 L 1.296875 -1.664062 L 1.296875 -1.839844 L 0.203125 -1.839844 L 0.203125 0 Z M 1.296875 0 "/></g></g></g><g fill="#3b3937" fill-opacity="1"><g transform="translate(20.660554, 20.815438)"><g><path d="M 0.710938 -0.867188 C 0.949219 -0.808594 1.113281 -0.746094 1.199219 -0.675781 C 1.257812 -0.628906 1.289062 -0.566406 1.289062 -0.488281 C 1.289062 -0.414062 1.273438 -0.351562 1.238281 -0.308594 C 1.160156 -0.195312 1.011719 -0.136719 0.804688 -0.136719 C 0.519531 -0.136719 0.355469 -0.234375 0.320312 -0.429688 L 0.101562 -0.429688 C 0.164062 -0.117188 0.402344 0.0351562 0.804688 0.0351562 C 0.988281 0.0351562 1.140625 -0.00390625 1.261719 -0.0820312 C 1.40625 -0.179688 1.484375 -0.320312 1.484375 -0.503906 C 1.484375 -0.65625 1.421875 -0.769531 1.304688 -0.851562 C 1.21875 -0.914062 1.085938 -0.964844 0.898438 -1.015625 C 0.710938 -1.0625 0.585938 -1.105469 0.53125 -1.132812 C 0.40625 -1.195312 0.34375 -1.28125 0.347656 -1.398438 C 0.347656 -1.457031 0.355469 -1.507812 0.382812 -1.546875 C 0.453125 -1.652344 0.578125 -1.707031 0.757812 -1.707031 C 1.007812 -1.707031 1.152344 -1.625 1.191406 -1.46875 L 1.398438 -1.46875 C 1.328125 -1.730469 1.113281 -1.867188 0.757812 -1.867188 C 0.59375 -1.867188 0.453125 -1.824219 0.332031 -1.738281 C 0.210938 -1.652344 0.148438 -1.523438 0.148438 -1.351562 C 0.148438 -1.113281 0.339844 -0.953125 0.710938 -0.867188 Z M 0.710938 -0.867188 "/></g></g></g><g fill="#3b3937" fill-opacity="1"><g transform="translate(24.294023, 20.815438)"><g/></g></g><g fill="#3b3937" fill-opacity="1"><g transform="translate(27.104792, 20.815438)"><g><path d="M 0.390625 -0.914062 L 0.390625 -1.660156 L 0.820312 -1.660156 C 0.929688 -1.660156 1.019531 -1.625 1.089844 -1.554688 C 1.152344 -1.484375 1.1875 -1.398438 1.1875 -1.292969 C 1.1875 -1.179688 1.152344 -1.089844 1.082031 -1.019531 C 1.011719 -0.949219 0.925781 -0.914062 0.820312 -0.914062 Z M 1.378906 -1.285156 C 1.378906 -1.449219 1.316406 -1.582031 1.203125 -1.6875 C 1.089844 -1.789062 0.957031 -1.839844 0.792969 -1.839844 L 0.203125 -1.839844 L 0.203125 0 L 0.390625 0 L 0.390625 -0.726562 L 0.792969 -0.726562 C 0.957031 -0.726562 1.09375 -0.78125 1.203125 -0.882812 C 1.316406 -0.992188 1.378906 -1.125 1.378906 -1.285156 Z M 1.378906 -1.285156 "/></g></g></g><g fill="#3b3937" fill-opacity="1"><g transform="translate(30.61648, 20.815438)"><g><path d="M 0.5 -0.675781 L 0.835938 -1.523438 L 1.167969 -0.675781 Z M 1.644531 0 L 0.835938 -1.96875 L 0.0273438 0 L 0.234375 0 L 0.429688 -0.5 L 1.238281 -0.5 L 1.4375 0 Z M 1.644531 0 "/></g></g></g><g fill="#3b3937" fill-opacity="1"><g transform="translate(34.36632, 20.815438)"><g><path d="M 0.390625 -0.910156 L 0.390625 -1.660156 L 0.820312 -1.660156 C 0.929688 -1.660156 1.019531 -1.625 1.089844 -1.554688 C 1.152344 -1.484375 1.1875 -1.398438 1.1875 -1.289062 C 1.1875 -1.179688 1.152344 -1.089844 1.082031 -1.019531 C 1.011719 -0.945312 0.925781 -0.910156 0.820312 -0.910156 Z M 1.378906 -1.285156 C 1.378906 -1.441406 1.316406 -1.578125 1.203125 -1.683594 C 1.09375 -1.785156 0.957031 -1.839844 0.792969 -1.839844 L 0.203125 -1.839844 L 0.203125 0 L 0.390625 0 L 0.390625 -0.726562 L 0.613281 -0.726562 L 1.152344 0 L 1.40625 0 L 0.839844 -0.726562 C 0.984375 -0.734375 1.105469 -0.789062 1.203125 -0.882812 C 1.316406 -0.988281 1.378906 -1.125 1.378906 -1.285156 Z M 1.378906 -1.285156 "/></g></g></g><g fill="#3b3937" fill-opacity="1"><g transform="translate(37.918601, 20.815438)"><g><path d="M 1.296875 -1.664062 L 1.296875 -1.839844 L 0.203125 -1.839844 L 0.203125 0 L 0.390625 0 L 0.390625 -0.832031 L 1.269531 -0.832031 L 1.269531 -1.007812 L 0.390625 -1.007812 L 0.390625 -1.664062 Z M 1.296875 -1.664062 "/></g></g></g><g fill="#3b3937" fill-opacity="1"><g transform="translate(41.349102, 20.815438)"><g><path d="M 1.535156 -0.609375 L 1.535156 -1.839844 L 1.34375 -1.839844 L 1.34375 -0.582031 C 1.34375 -0.507812 1.332031 -0.445312 1.304688 -0.390625 C 1.226562 -0.242188 1.074219 -0.164062 0.851562 -0.164062 C 0.703125 -0.164062 0.585938 -0.199219 0.5 -0.261719 C 0.402344 -0.335938 0.351562 -0.441406 0.351562 -0.582031 L 0.351562 -1.839844 L 0.164062 -1.839844 L 0.164062 -0.609375 C 0.164062 -0.410156 0.226562 -0.25 0.355469 -0.136719 C 0.480469 -0.03125 0.644531 0.0234375 0.851562 0.0234375 C 1.054688 0.0234375 1.214844 -0.03125 1.339844 -0.136719 C 1.46875 -0.25 1.535156 -0.410156 1.535156 -0.609375 Z M 1.535156 -0.609375 "/></g></g></g><g fill="#3b3937" fill-opacity="1"><g transform="translate(45.126003, 20.815438)"><g><path d="M 1.898438 0 L 2.09375 0 L 1.664062 -1.960938 L 1.0625 -0.386719 L 0.457031 -1.960938 L 0.0273438 0 L 0.222656 0 L 0.507812 -1.308594 L 1.0625 0.109375 L 1.613281 -1.308594 Z M 1.898438 0 "/></g></g></g><g fill="#3b3937" fill-opacity="1"><g transform="translate(49.325078, 20.815438)"><g><path d="M 0.710938 -0.867188 C 0.949219 -0.808594 1.113281 -0.746094 1.199219 -0.675781 C 1.257812 -0.628906 1.289062 -0.566406 1.289062 -0.488281 C 1.289062 -0.414062 1.273438 -0.351562 1.238281 -0.308594 C 1.160156 -0.195312 1.011719 -0.136719 0.804688 -0.136719 C 0.519531 -0.136719 0.355469 -0.234375 0.320312 -0.429688 L 0.101562 -0.429688 C 0.164062 -0.117188 0.402344 0.0351562 0.804688 0.0351562 C 0.988281 0.0351562 1.140625 -0.00390625 1.261719 -0.0820312 C 1.40625 -0.179688 1.484375 -0.320312 1.484375 -0.503906 C 1.484375 -0.65625 1.421875 -0.769531 1.304688 -0.851562 C 1.21875 -0.914062 1.085938 -0.964844 0.898438 -1.015625 C 0.710938 -1.0625 0.585938 -1.105469 0.53125 -1.132812 C 0.40625 -1.195312 0.34375 -1.28125 0.347656 -1.398438 C 0.347656 -1.457031 0.355469 -1.507812 0.382812 -1.546875 C 0.453125 -1.652344 0.578125 -1.707031 0.757812 -1.707031 C 1.007812 -1.707031 1.152344 -1.625 1.191406 -1.46875 L 1.398438 -1.46875 C 1.328125 -1.730469 1.113281 -1.867188 0.757812 -1.867188 C 0.59375 -1.867188 0.453125 -1.824219 0.332031 -1.738281 C 0.210938 -1.652344 0.148438 -1.523438 0.148438 -1.351562 C 0.148438 -1.113281 0.339844 -0.953125 0.710938 -0.867188 Z M 0.710938 -0.867188 "/></g></g></g><g fill="#3b3937" fill-opacity="1"><g transform="translate(52.958548, 20.815438)"><g/></g></g><g fill="#3b3937" fill-opacity="1"><g transform="translate(55.769317, 20.815438)"><g><path d="M 1.632812 -0.921875 C 1.632812 -1.054688 1.605469 -1.175781 1.554688 -1.289062 C 1.507812 -1.402344 1.441406 -1.5 1.355469 -1.582031 C 1.269531 -1.660156 1.167969 -1.722656 1.054688 -1.769531 C 0.9375 -1.816406 0.816406 -1.839844 0.683594 -1.839844 L 0.203125 -1.839844 L 0.203125 0 L 0.683594 0 C 0.816406 0 0.9375 -0.0234375 1.054688 -0.0664062 C 1.167969 -0.113281 1.269531 -0.179688 1.355469 -0.261719 C 1.441406 -0.339844 1.507812 -0.4375 1.554688 -0.550781 C 1.605469 -0.664062 1.632812 -0.785156 1.632812 -0.921875 Z M 1.449219 -0.921875 C 1.449219 -0.710938 1.371094 -0.53125 1.226562 -0.394531 C 1.078125 -0.257812 0.902344 -0.191406 0.691406 -0.191406 L 0.390625 -0.191406 L 0.390625 -1.652344 L 0.691406 -1.652344 C 0.902344 -1.652344 1.078125 -1.582031 1.226562 -1.445312 C 1.371094 -1.304688 1.449219 -1.128906 1.449219 -0.921875 Z M 1.449219 -0.921875 "/></g></g></g><g fill="#3b3937" fill-opacity="1"><g transform="translate(59.603048, 20.815438)"><g><path d="M 1.296875 0 L 1.296875 -0.175781 L 0.390625 -0.175781 L 0.390625 -0.832031 L 1.269531 -0.832031 L 1.269531 -1.007812 L 0.390625 -1.007812 L 0.390625 -1.664062 L 1.296875 -1.664062 L 1.296875 -1.839844 L 0.203125 -1.839844 L 0.203125 0 Z M 1.296875 0 "/></g></g></g></svg>